<svg
    xmlns="http://www.w3.org/2000/svg"
    xmlns:xlink="http://www.w3.org/1999/xlink"
    version="1.1"
    width="1080"
    height="1080"
    viewBox="0 0 1080 1080"
    xml:space="preserve"
>
    <g transform="matrix(0.05 0 0 -0.05 746.14 433.5)">
        <path
            style="stroke: none; stroke-width: 1; stroke-dasharray: none; stroke-linecap: butt; stroke-dashoffset: 0; stroke-linejoin: miter; stroke-miterlimit: 4; fill: rgb(7,175,44); fill-rule: nonzero; opacity: 1;"
            vector-effect="non-scaling-stroke"
            transform=" translate(-8695.3, -9494.83)"
            d="M 8500 12793 C 8297 12774 8248 12769 8236 12764 C 8215 12756 8169 12363 8152 12046 L 8145 11917 L 8035 11890 C 7975 11875 7891 11849 7850 11832 C 7745 11789 7513 11678 7453 11641 C 7425 11624 7400 11610 7398 11610 C 7395 11610 7247 11730 7069 11876 C 6891 12022 6739 12144 6733 12147 C 6709 12157 6504 11983 6351 11824 C 6204 11672 6036 11462 6048 11447 C 6091 11390 6255 11188 6395 11020 C 6489 10907 6570 10809 6574 10802 C 6578 10794 6565 10764 6540 10724 C 6473 10618 6395 10453 6360 10345 C 6342 10290 6317 10213 6304 10173 C 6291 10134 6280 10095 6280 10087 C 6280 10076 6261 10071 6208 10066 C 5818 10030 5443 9987 5433 9976 C 5402 9946 5382 9544 5399 9327 C 5411 9176 5434 9012 5445 9002 C 5449 8997 5744 8968 6202 8925 L 6279 8918 L 6285 8877 C 6289 8854 6300 8815 6310 8790 C 6320 8765 6344 8693 6364 8629 C 6403 8508 6484 8336 6551 8236 C 6573 8203 6589 8171 6586 8163 C 6583 8156 6503 8057 6407 7943 C 6143 7627 6059 7520 6067 7507 C 6101 7447 6262 7258 6375 7144 C 6524 6994 6757 6800 6768 6816 C 6772 6822 6867 6902 6980 6995 C 7093 7088 7230 7202 7285 7249 C 7340 7297 7392 7341 7402 7348 C 7416 7359 7435 7352 7532 7297 C 7666 7221 7831 7153 7991 7110 C 8054 7093 8112 7075 8118 7071 C 8126 7066 8141 6962 8160 6769 C 8190 6476 8217 6245 8224 6224 C 8232 6203 8534 6187 8793 6193 C 8999 6198 9200 6217 9216 6232 C 9218 6235 9236 6412 9255 6626 C 9275 6840 9293 7030 9296 7048 C 9302 7086 9300 7085 9473 7136 C 9618 7179 9811 7264 9928 7337 C 9975 7367 10018 7389 10024 7386 C 10030 7384 10091 7334 10160 7275 C 10392 7075 10682 6849 10697 6854 C 10724 6865 10835 6950 10897 7007 C 11026 7127 11380 7528 11380 7554 C 11380 7557 11266 7695 11128 7861 C 10989 8026 10865 8174 10853 8189 L 10831 8216 L 10890 8330 C 10969 8481 11046 8674 11079 8801 L 11105 8905 L 11290 8922 C 11392 8931 11584 8949 11717 8961 L 11959 8984 L 11965 9010 C 11978 9073 11991 9229 11996 9390 C 12005 9627 11979 9972 11952 9989 C 11945 9993 11755 10013 11528 10034 C 11301 10055 11112 10074 11108 10076 C 11104 10078 11096 10106 11090 10138 C 11063 10275 10975 10502 10884 10671 L 10819 10792 L 10857 10838 C 10878 10864 10996 11009 11121 11161 C 11245 11313 11350 11442 11354 11449 C 11362 11461 11283 11562 11151 11709 C 11005 11871 10670 12160 10647 12143 C 10564 12080 10265 11838 10160 11749 C 10085 11687 10018 11630 10009 11623 C 9997 11613 9955 11630 9780 11719 C 9627 11795 9533 11835 9455 11858 C 9395 11876 9335 11890 9323 11890 C 9298 11890 9298 11887 9274 12145 C 9257 12336 9210 12753 9206 12757 C 9198 12765 9080 12780 8954 12789 C 8824 12799 8582 12801 8500 12793 z M 8955 10699 C 9172 10663 9382 10548 9565 10366 C 9744 10188 9854 9992 9900 9765 C 10004 9264 9801 8767 9380 8489 C 9188 8362 9002 8303 8764 8293 C 8542 8283 8376 8317 8185 8410 C 7946 8527 7766 8703 7639 8944 C 7543 9127 7505 9287 7506 9515 C 7507 9796 7583 10022 7750 10238 C 7962 10513 8250 10684 8545 10709 C 8656 10718 8874 10713 8955 10699 z"
            stroke-linecap="round"
        />
        <animateTransform
            attributeName="transform"
            type="rotate"
            from="0 0 0"
            to="-360 0 0"
            dur="4s"
            repeatCount="indefinite"
            additive="sum"
        />
    </g>
    <g transform="matrix(0.05 0 0 -0.05 524.55 691.29)">
        <path
            style="stroke: none; stroke-width: 0; stroke-dasharray: none; stroke-linecap: butt; stroke-dashoffset: 0; stroke-linejoin: miter; stroke-miterlimit: 4; fill: rgb(3,47,117); fill-rule: nonzero; opacity: 1;"
            vector-effect="non-scaling-stroke"
            transform=" translate(-4249.5, -4263.2)"
            d="M 4716 8448 C 4641 8257 4554 8020 4465 7768 L 4367 7490 L 4245 7490 C 4014 7490 3662 7443 3457 7384 C 3387 7364 3328 7349 3326 7351 C 3325 7353 3290 7402 3249 7460 C 3109 7660 2679 8250 2674 8250 C 2664 8250 2493 8182 2455 8162 C 2433 8151 2381 8126 2340 8106 C 2299 8087 2220 8045 2165 8012 C 2110 7980 2017 7925 1958 7890 C 1853 7828 1708 7724 1616 7645 L 1570 7604 L 1690 7345 C 1757 7202 1861 6978 1922 6847 L 2033 6609 L 1957 6532 C 1761 6332 1524 6021 1444 5857 C 1428 5825 1412 5800 1407 5800 C 1403 5800 1261 5824 1092 5854 C 763 5912 319 5983 315 5978 C 307 5970 212 5730 175 5625 C 124 5479 40 5067 5 4785 L -1 4735 L 507 4540 L 1015 4345 L 1017 4250 C 1021 4079 1040 3869 1061 3761 C 1072 3703 1088 3620 1096 3578 C 1104 3535 1122 3462 1135 3415 C 1149 3368 1160 3323 1160 3315 C 1160 3308 1067 3235 953 3154 C 838 3073 640 2930 512 2836 C 304 2684 280 2663 285 2643 C 307 2555 501 2179 631 1971 C 705 1855 854 1641 895 1593 L 925 1559 L 1100 1640 C 1272 1721 1836 1979 1896 2005 L 1926 2019 L 2061 1894 C 2230 1736 2314 1673 2543 1533 C 2681 1449 2725 1417 2723 1403 C 2722 1393 2701 1261 2676 1110 C 2632 844 2560 362 2560 337 C 2560 330 2575 319 2593 311 C 2818 221 3019 159 3308 91 C 3501 45 3781 -3 3791 8 C 3809 28 4052 667 4146 937 L 4184 1050 L 4336 1050 C 4598 1050 4783 1076 5048 1152 C 5170 1186 5194 1190 5205 1179 C 5212 1171 5358 967 5530 725 C 5702 483 5844 283 5846 282 C 5849 278 5937 319 6207 452 C 6319 507 6450 582 6552 649 C 6697 745 6883 882 6933 930 C 6951 946 6948 955 6852 1171 C 6797 1294 6693 1521 6622 1675 L 6492 1954 L 6609 2080 C 6769 2250 6914 2448 7014 2632 C 7039 2680 7064 2721 7068 2723 C 7072 2725 7163 2712 7270 2694 C 7829 2600 8153 2549 8164 2553 C 8186 2562 8342 3006 8385 3180 C 8393 3216 8405 3255 8410 3267 C 8419 3288 8483 3649 8494 3742 L 8500 3789 L 8452 3810 C 8390 3838 7972 3996 7688 4100 L 7460 4183 L 7460 4339 C 7460 4518 7450 4620 7419 4787 C 7401 4886 7352 5101 7334 5162 C 7330 5174 7378 5213 7522 5316 C 7739 5471 8217 5827 8225 5841 C 8232 5852 8164 6012 8082 6175 C 7966 6408 7816 6643 7658 6842 L 7581 6939 L 7448 6881 C 7264 6800 6968 6664 6761 6564 L 6588 6480 L 6454 6607 C 6312 6741 6140 6875 6025 6943 C 5965 6978 5842 7059 5817 7080 C 5813 7084 5828 7203 5850 7346 C 5962 8060 5981 8182 5978 8185 C 5976 8186 5905 8214 5820 8247 C 5640 8317 5421 8390 5389 8390 C 5377 8390 5342 8399 5311 8409 C 5231 8437 4823 8519 4765 8520 C 4749 8520 4739 8504 4716 8448 z M 4535 5825 C 4811 5776 5099 5641 5307 5462 C 5553 5250 5767 4863 5825 4526 C 5847 4399 5845 4179 5821 4038 C 5777 3783 5667 3513 5536 3340 C 5305 3033 4905 2792 4516 2725 C 4402 2706 4182 2706 4062 2725 C 3834 2762 3576 2855 3416 2958 C 3060 3188 2796 3583 2714 4010 C 2690 4137 2690 4368 2714 4505 C 2804 5014 3043 5367 3475 5631 C 3589 5701 3768 5773 3905 5806 C 4098 5852 4344 5859 4535 5825 z"
            stroke-linecap="round"
        />
        <animateTransform
            attributeName="transform"
            type="rotate"
            from="0 0 0"
            to="360 0 0"
            dur="4s"
            repeatCount="indefinite"
            additive="sum"
        />
    </g>
</svg>